<svg width="700" height="92" viewBox="0 0 700 92" fill="none" xmlns="http://www.w3.org/2000/svg">
<path d="M112.994 91.0586V0.98829H128.445V77.3031H180.075V91.0586H112.994ZM188.246 91.0586V0.98829H203.697V91.0586H188.246ZM283.095 0.98829H299.74L265.319 91.0586H245.283L210.172 0.98829H227.131L255.647 75.7328L283.095 0.98829ZM306.591 91.0586V0.98829H373.673V14.8066H322.042V37.9209H365.947V51.7392H322.042V77.3031H374.929V91.0586H306.591ZM385.988 91.0586V0.98829H425.434C442.392 0.799858 454.515 11.5405 454.326 28.8762C454.515 46.2119 442.392 56.9525 425.434 56.8269H401.44V91.0586H385.988ZM401.44 43.0085H423.486C433.473 43.0085 438.938 37.7325 438.938 28.8762C438.938 20.0199 433.473 14.8066 423.486 14.8066H401.44V43.0085ZM464.255 91.0586V0.98829H531.337V14.8066H479.707V37.9209H523.611V51.7392H479.707V77.3031H532.593V91.0586H464.255ZM543.653 91.0586V0.98829H610.735V14.8066H559.104V37.9209H603.009V51.7392H559.104V77.3031H611.991V91.0586H543.653ZM623.05 91.0586V0.98829H663.5C679.203 0.799858 691.577 11.6033 691.388 25.4844C691.388 36.8531 685.924 44.8929 676.314 48.2218C686.112 48.2218 690.132 52.3045 690.132 60.9095V91.0586H674.681V64.8038C674.681 58.0203 672.859 56.1359 666.076 56.1359H638.502V91.0586H623.05ZM638.502 42.5061H659.732C670.096 42.5061 676 36.9787 676 28.1853C676 19.329 670.347 14.8066 659.732 14.8066H638.502V42.5061Z" fill="white"/>
<rect y="90.6934" width="15.8414" height="15.8414" transform="rotate(-90 0 90.6934)" fill="white"/>
<rect x="29.1172" y="72.2871" width="15.8414" height="15.8414" transform="rotate(-90 29.1172 72.2871)" fill="white"/>
<rect x="0.0742188" y="53.8047" width="15.8414" height="15.8414" transform="rotate(-90 0.0742188 53.8047)" fill="white"/>
<rect x="58.1582" y="53.8047" width="15.8414" height="15.8414" transform="rotate(-90 58.1582 53.8047)" fill="white"/>
<rect x="29.1172" y="35.3203" width="15.8414" height="15.8414" transform="rotate(-90 29.1172 35.3203)" fill="white"/>
<rect x="0.0742188" y="16.8418" width="15.8414" height="15.8414" transform="rotate(-90 0.0742188 16.8418)" fill="white"/>
</svg>