<svg xmlns="http://www.w3.org/2000/svg" width="120" height="120" fill="none"><g fill="#fff" clip-path="url(#a)" transform="scale(.23438)"><path d="m91.652 9.233 109.765 60.1c2.299 1.259 1.972 4.933-.476 5.809-16.485 5.899-28.948 13.797-39.426 24.098-12.943 12.724-17.584 31.974-17.584 50.8v288.012c0 18.551-9.825 35.493-25.342 43.703l-53.433 23.262c-9.612 4.185-19.796 7.516-30.21 6.912-10.7-.621-18.254-3.952-24.456-11.312C1.327 489.744 0 474.332 0 459.915V62.19c0-11.385 1.41-23.082 7.402-32.481 7.512-11.787 18.021-20.032 32.59-26.082C56.83-3.364 75.572.43 91.652 9.233Z"/><path d="m265.8 94.717 119.864 64.007c2.324 1.241 2.015 4.954-.44 5.859-16.943 6.242-29.673 15.181-40.355 26.444-12.124 12.783-16.852 31.201-17.177 49.427l-1.936 108.4c-.325 18.207-10.092 34.701-25.324 42.764l-64.177 33.974c-11.606 6.145-25.382 11.849-37.008 5.743-2.309-1.213-4.412-2.793-6.355-4.827-7.66-8.022-8.632-20.244-8.632-31.513V153.814c0-11.384 1.455-23.073 7.594-32.363 11.306-17.107 29.804-28.633 53.688-31.27 6.998-.773 13.961 1.173 20.258 4.536zM387.752 209.231c12.81-11.86 27.678-18.992 51.632-19.972 16.663 1.523 25.305 3.046 38.324 10.661 9.546 5.583 21.662 15.23 28.327 30.46 11.664 24.367 5.699 50.741-13.33 73.102-12.722 14.95-48.911 31.007-79.189 42.519-10.766 4.093-23.178 8.169-33.01 2.061a22.703 22.703 0 0 1-4.354-3.532c-8.546-8.839-9.012-22.656-9.012-35.15v-43.743c0-21.054 5.748-42.644 20.612-56.406z"/></g><defs><clipPath id="a"><path fill="#fff" d="M0 0h512v512H0z"/></clipPath></defs></svg>