<svg width="120" height="120" viewBox="0 0 120 120" fill="none" xmlns="http://www.w3.org/2000/svg">
<g clip-path="url(#clip0_204_27)">
<path d="M21.4809 2.16397L47.2072 16.25C47.746 16.545 47.6693 17.406 47.0954 17.6114C43.2318 18.9939 40.3108 20.8452 37.8551 23.2593C34.8216 26.2415 33.7337 30.7533 33.7337 35.1656V102.669C33.7337 107.016 31.4312 110.987 27.7942 112.911L15.271 118.363C13.0182 119.344 10.6312 120.125 8.19038 119.983C5.6827 119.838 3.91222 119.057 2.45865 117.332C0.311094 114.784 0 111.171 0 107.792V14.5757C0 11.9074 0.330517 9.16603 1.73477 6.96295C3.49557 4.20049 5.95853 2.26803 9.37323 0.850118C13.3194 -0.788483 17.7122 0.100457 21.4809 2.16397Z" fill="white"/>
<path d="M62.297 22.1993L90.3901 37.201C90.9346 37.4918 90.8622 38.3621 90.2869 38.574C86.3158 40.037 83.3324 42.1323 80.8286 44.772C77.9871 47.768 76.879 52.0846 76.8028 56.3563L76.3492 81.7626C76.273 86.0298 73.9838 89.8956 70.4138 91.7855L55.3724 99.7482C52.6521 101.188 49.4234 102.525 46.6986 101.094C46.1573 100.81 45.6645 100.44 45.2091 99.9627C43.4138 98.0826 43.1861 95.2182 43.1861 92.5771V36.0502C43.1861 33.3819 43.5269 30.6424 44.9658 28.4651C47.6155 24.4555 51.9512 21.7543 57.5489 21.1362C59.189 20.955 60.8211 21.4112 62.297 22.1993Z" fill="white"/>
<path d="M90.8794 49.0385C93.8817 46.2587 97.3663 44.5873 102.981 44.3577C106.886 44.7146 108.912 45.0716 111.963 46.8563C114.2 48.1649 117.04 50.4258 118.602 53.9952C121.336 59.7063 119.938 65.8876 115.478 71.1286C112.496 74.6324 104.014 78.3959 96.9179 81.0939C94.3944 82.0533 91.4855 83.0085 89.181 81.577C88.8116 81.3475 88.4734 81.0726 88.1607 80.7492C86.1577 78.6775 86.0484 75.4393 86.0484 72.511V62.2587C86.0484 57.3242 87.3957 52.264 90.8794 49.0385Z" fill="white"/>
</g>
<defs>
<clipPath id="clip0_204_27">
<rect width="120" height="120" fill="white"/>
</clipPath>
</defs>
</svg>
