<svg width="700" height="92" viewBox="0 0 700 92" fill="none" xmlns="http://www.w3.org/2000/svg">
<path d="M112.994 91.0527V0.98243H128.445V77.2972H180.075V91.0527H112.994ZM188.246 91.0527V0.98243H203.697V91.0527H188.246ZM283.095 0.98243H299.74L265.319 91.0527H245.283L210.172 0.98243H227.131L255.647 75.727L283.095 0.98243ZM306.591 91.0527V0.98243H373.673V14.8007H322.042V37.915H365.947V51.7333H322.042V77.2972H374.929V91.0527H306.591ZM385.988 91.0527V0.98243H425.434C442.392 0.793999 454.515 11.5346 454.326 28.8703C454.515 46.206 442.392 56.9466 425.434 56.821H401.44V91.0527H385.988ZM401.44 43.0027H423.486C433.473 43.0027 438.938 37.7266 438.938 28.8703C438.938 20.014 433.473 14.8007 423.486 14.8007H401.44V43.0027ZM464.255 91.0527V0.98243H531.337V14.8007H479.707V37.915H523.611V51.7333H479.707V77.2972H532.593V91.0527H464.255ZM543.653 91.0527V0.98243H610.735V14.8007H559.104V37.915H603.009V51.7333H559.104V77.2972H611.991V91.0527H543.653ZM623.05 91.0527V0.98243H663.5C679.203 0.793999 691.577 11.5974 691.388 25.4785C691.388 36.8472 685.924 44.887 676.314 48.216C686.112 48.216 690.132 52.2986 690.132 60.9037V91.0527H674.681V64.7979C674.681 58.0144 672.859 56.1301 666.076 56.1301H638.502V91.0527H623.05ZM638.502 42.5002H659.732C670.096 42.5002 676 36.9729 676 28.1794C676 19.3231 670.347 14.8007 659.732 14.8007H638.502V42.5002Z" fill="#171717"/>
<rect y="90.6875" width="15.8414" height="15.8414" transform="rotate(-90 0 90.6875)" fill="#171717"/>
<rect x="29.1172" y="72.2812" width="15.8414" height="15.8414" transform="rotate(-90 29.1172 72.2812)" fill="#171717"/>
<rect x="0.0742188" y="53.7988" width="15.8414" height="15.8414" transform="rotate(-90 0.0742188 53.7988)" fill="#171717"/>
<rect x="58.1582" y="53.7988" width="15.8414" height="15.8414" transform="rotate(-90 58.1582 53.7988)" fill="#171717"/>
<rect x="29.1172" y="35.3145" width="15.8414" height="15.8414" transform="rotate(-90 29.1172 35.3145)" fill="#171717"/>
<rect x="0.0742188" y="16.8359" width="15.8414" height="15.8414" transform="rotate(-90 0.0742188 16.8359)" fill="#171717"/>
</svg>