<?xml version="1.0" encoding="UTF-8" standalone="no"?>
<svg
   width="512"
   height="74.404846"
   viewBox="0 0 512 74.404846"
   fill="none"
   version="1.1"
   id="svg1031"
   sodipodi:docname="logo-light-512px.svg"
   inkscape:version="1.2.2 (b0a8486541, 2022-12-01)"
   xmlns:inkscape="http://www.inkscape.org/namespaces/inkscape"
   xmlns:sodipodi="http://sodipodi.sourceforge.net/DTD/sodipodi-0.dtd"
   xmlns="http://www.w3.org/2000/svg"
   xmlns:svg="http://www.w3.org/2000/svg">
  <defs
     id="defs1035" />
  <sodipodi:namedview
     id="namedview1033"
     pagecolor="#ffffff"
     bordercolor="#000000"
     borderopacity="0.25"
     inkscape:showpageshadow="2"
     inkscape:pageopacity="0.0"
     inkscape:pagecheckerboard="0"
     inkscape:deskcolor="#d1d1d1"
     showgrid="false"
     inkscape:zoom="1.2118409"
     inkscape:cx="255.80916"
     inkscape:cy="37.546183"
     inkscape:window-width="1920"
     inkscape:window-height="1043"
     inkscape:window-x="0"
     inkscape:window-y="0"
     inkscape:window-maximized="1"
     inkscape:current-layer="svg1031" />
  <path
     d="m 13.31902,1.2986303 15.95133,8.453226 c 0.33407,0.177053 0.28655,0.6937627 -0.0693,0.8169937 -2.3956,0.829644 -4.20674,1.940622 -5.72938,3.389407 -1.88088,1.789674 -2.55541,4.497258 -2.55541,7.145145 v 40.509427 c 0,2.60914 -1.42765,4.99227 -3.68277,6.14688 L 4.9889,74.029779 C 2.69055,75.206659 0,73.471189 0,70.812309 V 8.7471013 c 0,-1.601297 0.20493,-3.246419 1.07563,-4.568514 1.09176,-1.65781 2.6189,-2.817507 4.73614,-3.66841898 2.44677,-0.983349 5.17051,-0.449882 7.50726,0.78846198 z"
     fill="#ffffff"
     id="path1023"
     style="stroke-width:0.473785" />
  <path
     d="m 38.6266,13.322154 17.41878,9.002712 c 0.33781,0.174495 0.2928,0.696795 -0.064,0.824006 -2.46225,0.877923 -4.31191,2.135347 -5.8645,3.719493 -1.76201,1.797918 -2.44899,4.388382 -2.49637,6.951888 l -0.281,15.246765 c -0.0472,2.560806 -1.46665,4.880455 -3.68017,6.014695 l -11.89266,6.093346 c -2.29842,1.17783 -4.98966,-0.55717 -4.98966,-3.217 V 21.634278 c 0,-1.601297 0.2114,-3.245282 1.10354,-4.551933 1.64289,-2.406209 4.3312,-4.027263 7.802,-4.398236 1.01698,-0.108686 2.02889,0.165066 2.944,0.638045 z"
     fill="#ffffff"
     id="path1025"
     style="stroke-width:0.473785" />
  <path
     d="m 56.34861,29.428744 c 1.86197,-1.668195 4.02243,-2.671245 7.50332,-2.809021 2.42152,0.214198 3.67752,0.428396 5.56934,1.499433 1.38724,0.785298 3.1483,2.142075 4.11671,4.284197 1.6952,3.42731 0.82818,7.136806 -1.9373,10.281977 -2.19789,2.49983 -9.21606,5.219969 -13.87999,6.823729 -2.17894,0.749528 -4.36735,-0.956097 -4.36735,-3.337812 v -8.808839 c 0,-2.961343 0.83528,-5.998017 2.99527,-7.933664 z"
     fill="#ffffff"
     id="path1027"
     style="stroke-width:0.473785" />
  <path
     d="m 110.08241,61.208699 c -4.21906,0 -8.0406,-0.91536 -11.46322,-2.74653 -3.3833,-1.870505 -6.05023,-4.437943 -8.0008,-7.701845 -1.9103,-3.263901 -2.86545,-6.945491 -2.86545,-11.045196 0,-4.099705 0.97505,-7.781485 2.92515,-11.045339 1.95057,-3.263855 4.6175,-5.811252 8.0008,-7.642192 3.42262,-1.870786 7.24416,-2.806131 11.46321,-2.806131 3.4231,0 6.54771,0.597063 9.37336,1.791142 2.82612,1.194079 5.21447,2.925525 7.16457,5.194289 l -5.01501,4.716668 c -3.02512,-3.263855 -6.74669,-4.895758 -11.16474,-4.895758 -2.86592,0 -5.43336,0.636814 -7.70184,1.910536 -2.26895,1.233877 -4.03996,2.965323 -5.31396,5.194289 -1.27354,2.228967 -1.9103,4.756466 -1.9103,7.582496 0,2.82603 0.63676,5.353528 1.9103,7.582305 1.274,2.229156 3.04501,3.980264 5.31396,5.254271 2.26848,1.233735 4.83592,1.850602 7.70184,1.850602 4.41805,0 8.13962,-1.651613 11.16474,-4.955312 l 5.01501,4.776222 c -1.9501,2.268954 -4.35835,4.000163 -7.22427,5.194573 -2.82613,1.19394 -5.95026,1.79091 -9.37335,1.79091 z m 36.48141,-0.17909 c -3.22411,0 -6.12983,-0.69647 -8.71717,-2.08939 -2.58686,-1.3934 -4.61703,-3.323603 -6.08955,-5.791547 -1.4332,-2.507741 -2.14956,-5.333392 -2.14956,-8.478042 0,-3.144461 0.71636,-5.950592 2.14956,-8.418394 1.47252,-2.467754 3.50269,-4.398236 6.08955,-5.791305 2.58734,-1.393116 5.49306,-2.089674 8.71717,-2.089674 3.2639,0 6.18904,0.696558 8.77638,2.089674 2.58734,1.393069 4.59713,3.323551 6.03033,5.791305 1.47252,2.467802 2.20878,5.273933 2.20878,8.418394 0,3.14465 -0.73626,5.970301 -2.20878,8.478042 -1.4332,2.467944 -3.44299,4.398147 -6.03033,5.791547 -2.58734,1.39292 -5.51248,2.08939 -8.77638,2.08939 z m 0,-6.388515 c 2.74605,0 5.01501,-0.915352 6.80638,-2.746056 1.79091,-1.831177 2.68636,-4.239424 2.68636,-7.224408 0,-2.985269 -0.89545,-5.393327 -2.68636,-7.224267 -1.79137,-1.83094 -4.06033,-2.746434 -6.80638,-2.746434 -2.74653,0 -5.01549,0.915494 -6.80639,2.746434 -1.75158,1.83094 -2.62714,4.238998 -2.62714,7.224267 0,2.984984 0.87556,5.393231 2.62714,7.224408 1.7909,1.830704 4.05986,2.746056 6.80639,2.746056 z m 64.393,-26.269837 c 4.02006,0 7.20437,1.17418 9.55292,3.522541 2.34855,2.30861 3.52259,5.791352 3.52259,10.448323 v 18.269608 h -7.46306 V 43.297412 c 0,-2.786232 -0.61687,-4.875906 -1.85107,-6.268974 -1.23374,-1.432914 -3.00522,-2.149371 -5.3135,-2.149371 -2.50774,0 -4.51753,0.83585 -6.03033,2.507599 -1.51232,1.631904 -2.26848,3.980264 -2.26848,7.045129 v 16.179934 h -7.46305 V 43.297412 c 0,-2.786232 -0.61734,-4.875906 -1.85108,-6.268974 -1.23373,-1.432914 -3.00521,-2.149371 -5.31349,-2.149371 -2.54754,0 -4.57771,0.815951 -6.09003,2.447855 -1.47299,1.631951 -2.20926,4.00021 -2.20926,7.104873 v 16.179934 h -7.46305 V 28.729485 h 7.10487 v 4.059908 c 1.19441,-1.432914 2.68684,-2.527499 4.47774,-3.283754 1.79138,-0.756255 3.78128,-1.134382 5.97063,-1.134382 2.38835,0 4.49764,0.457723 6.32882,1.373217 1.8705,0.875649 3.3435,2.189169 4.41804,3.940466 1.31333,-1.671701 3.00521,-2.965323 5.0747,-3.880769 2.06997,-0.955292 4.35882,-1.432914 6.86609,-1.432914 z m 34.6128,-6.448113 c -3.1445,0 -4.71652,1.711547 -4.71652,5.134593 v 1.910536 h 8.77638 v 5.97049 h -8.59729 v 25.672966 h -7.46306 V 26.938343 c 0,-3.383248 0.99495,-6.069985 2.98532,-8.060117 1.9899,-1.99018 4.81602,-2.985269 8.4779,-2.985269 2.82613,0 5.05528,0.577164 6.687,1.731445 l -2.08987,5.612262 c -1.19393,-0.875696 -2.54706,-1.31352 -4.05986,-1.31352 z m 39.91493,6.806341 v 27.046323 c 0,11.224431 -5.51248,16.836411 -16.53792,16.836411 -2.90572,0 -5.69205,-0.39798 -8.35898,-1.19394 -2.62667,-0.75616 -4.79613,-1.87098 -6.50743,-3.3435 l 3.34349,-5.61198 c 1.35313,1.15414 3.00474,2.06949 4.95532,2.74606 1.95009,0.67656 4.00016,1.01532 6.14972,1.01532 3.26343,0 5.65177,-0.79643 7.16457,-2.38835 1.55212,-1.55259 2.32818,-3.96036 2.32818,-7.224266 v -1.492421 c -1.19394,1.313331 -2.64704,2.328177 -4.35835,3.044537 -1.71178,0.67704 -3.56238,1.01532 -5.55275,1.01532 -4.25885,0 -7.62225,-1.17451 -10.08972,-3.522585 -2.42814,-2.34855 -3.64198,-5.871138 -3.64198,-10.567859 v -16.35907 h 7.46305 v 15.403778 c 0,2.825888 0.63677,4.95555 1.9103,6.388274 1.31381,1.3934 3.16441,2.089864 5.55276,2.089864 2.66646,0 4.77622,-0.815857 6.32881,-2.448045 1.59192,-1.631714 2.38788,-4.000116 2.38788,-7.104778 V 28.729485 Z m 22.7445,32.479214 c -3.2241,0 -6.34871,-0.45768 -9.37383,-1.37303 -2.98531,-0.91535 -5.35329,-2.12966 -7.10487,-3.641984 l 2.68683,-6.030329 c 1.71131,1.353602 3.80118,2.467944 6.26912,3.343497 2.50727,0.835756 5.01501,1.253634 7.52275,1.253634 3.10424,0 5.41299,-0.497474 6.92531,-1.492421 1.55259,-0.994948 2.32865,-2.308752 2.32865,-3.940466 0,-1.193937 -0.43778,-2.169459 -1.31333,-2.925572 -0.83576,-0.796053 -1.91077,-1.413015 -3.2241,-1.85084 -1.31334,-0.437824 -3.10471,-0.935345 -5.37367,-1.49261 -3.18383,-0.756255 -5.77117,-1.51251 -7.76154,-2.268765 -1.95009,-0.756255 -3.64198,-1.930435 -5.0747,-3.522588 -1.3934,-1.631903 -2.08987,-3.821072 -2.08987,-6.567507 0,-2.308562 0.61687,-4.398236 1.85108,-6.268974 1.27353,-1.910537 3.16441,-3.423046 5.67167,-4.537577 2.54754,-1.114483 5.65225,-1.671701 9.31413,-1.671701 2.54754,0 5.05481,0.31843 7.52275,0.955291 2.46795,0.636814 4.59714,1.552308 6.38852,2.746387 l -2.44805,6.030188 c -1.8307,-1.074686 -3.74148,-1.890685 -5.73137,-2.447903 -1.99037,-0.557265 -3.92104,-0.835851 -5.79154,-0.835851 -3.06492,0 -5.35377,0.51742 -6.86609,1.552308 -1.47252,1.034888 -2.20926,2.408057 -2.20926,4.119604 0,1.194079 0.41836,2.16927 1.25411,2.925525 0.87556,0.756255 1.97,1.353318 3.2838,1.791142 1.31333,0.437824 3.10471,0.935393 5.37319,1.492611 3.10471,0.716457 5.65225,1.472712 7.64215,2.268765 1.99037,0.756302 3.68178,1.930482 5.07518,3.522588 1.43272,1.592153 2.14908,3.741476 2.14908,6.448207 0,2.308279 -0.63676,4.398142 -1.9103,6.269117 -1.2342,1.870504 -3.1246,3.362924 -5.67214,4.477734 -2.54754,1.11435 -5.65178,1.67152 -9.31366,1.67152 z m 41.78732,-2.32818 c -0.87555,0.71636 -1.95009,1.25363 -3.2241,1.61181 -1.23374,0.35818 -2.54707,0.53728 -3.94047,0.53728 -3.50269,0 -6.20894,-0.91536 -8.11972,-2.74653 -1.9103,-1.830707 -2.86592,-4.49764 -2.86592,-8.000329 V 21.684309 h 7.46305 v 7.283964 h 8.53808 v 5.97049 h -8.53808 v 15.164896 c 0,1.552592 0.37808,2.746529 1.13472,3.582285 0.79596,0.795958 1.8904,1.193937 3.2838,1.193937 1.67151,0 3.06444,-0.437777 4.17925,-1.313331 z m 13.27355,-25.494063 c 2.14956,-3.343498 5.93084,-5.015199 11.34382,-5.015199 v 7.104826 c -0.63676,-0.119394 -1.21383,-0.179091 -1.73121,-0.179091 -2.90572,0 -5.17467,0.85575 -6.80638,2.567296 -1.63172,1.671702 -2.44805,4.099705 -2.44805,7.283964 v 15.463477 h -7.46305 V 28.729485 h 7.10487 z m 32.54852,21.314334 c 3.4629,0 6.34872,-1.154139 8.657,-3.462891 l 3.94046,4.597605 c -1.39293,1.711315 -3.1843,3.005215 -5.37319,3.880765 -2.18936,0.87556 -4.65683,1.31334 -7.40336,1.31334 -3.50269,0 -6.5875,-0.69647 -9.25443,-2.08939 -2.66646,-1.3934 -4.73642,-3.323603 -6.20895,-5.791547 -1.43319,-2.507741 -2.14956,-5.333392 -2.14956,-8.478042 0,-3.104663 0.69647,-5.890895 2.08987,-8.358649 1.43272,-2.5076 3.38282,-4.457981 5.85076,-5.85105 2.50774,-1.393116 5.33387,-2.089674 8.4779,-2.089674 2.98532,0 5.69205,0.65676 8.1202,1.970233 2.46747,1.273722 4.41804,3.124562 5.85076,5.552518 1.4332,2.388206 2.14956,5.194337 2.14956,8.418393 l -24.41933,4.776412 c 0.75616,1.830703 1.97047,3.224103 3.64198,4.179253 1.67199,0.95515 3.68178,1.432724 6.03033,1.432724 z m -1.3735,-20.35909 c -2.74605,0 -4.97521,0.895595 -6.68652,2.686738 -1.67198,1.791095 -2.50774,4.199199 -2.50774,7.224219 v 0.05974 l 18.03082,-3.462891 c -0.51737,-1.950334 -1.57249,-3.522588 -3.16441,-4.716667 -1.55212,-1.19408 -3.44299,-1.791143 -5.67215,-1.791143 z m 54.45632,-5.612215 v 31.882244 h -7.10487 V 56.49217 c -1.23373,1.512319 -2.76595,2.647029 -4.59713,3.403199 -1.79091,0.75616 -3.78127,1.13424 -5.97063,1.13424 -3.10424,0 -5.89057,-0.67657 -8.35851,-2.0297 -2.42815,-1.3536 -4.33844,-3.263899 -5.73137,-5.731843 -1.3536,-2.467944 -2.03017,-5.333393 -2.03017,-8.597436 0,-3.263855 0.67657,-6.109784 2.03017,-8.537787 1.39293,-2.467802 3.30322,-4.378338 5.73137,-5.731656 2.46794,-1.353271 5.25427,-2.02993 8.35851,-2.02993 2.06996,0 3.96036,0.358228 5.67215,1.074685 1.7511,0.716457 3.2639,1.771244 4.53743,3.164313 v -3.88077 z m -16.8364,25.911609 c 2.74605,0 5.01501,-0.915352 6.80591,-2.746056 1.79138,-1.831177 2.68683,-4.239424 2.68683,-7.224408 0,-2.985269 -0.89545,-5.393327 -2.68683,-7.224267 -1.7909,-1.83094 -4.05986,-2.746434 -6.80591,-2.746434 -2.74653,0 -5.01549,0.915494 -6.80639,2.746434 -1.75158,1.83094 -2.62714,4.238998 -2.62714,7.224267 0,2.984984 0.87556,5.393231 2.62714,7.224408 1.7909,1.830704 4.05986,2.746056 6.80639,2.746056 z m 66.84341,-26.269837 c 4.0177,0 7.20153,1.17418 9.5515,3.522541 2.34997,2.30861 3.52022,5.791352 3.52022,10.448323 v 18.269608 h -7.46211 V 43.297412 c 0,-2.786232 -0.61592,-4.875906 -1.84776,-6.268974 -1.23657,-1.432914 -3.00853,-2.149371 -5.31586,-2.149371 -2.50632,0 -4.51517,0.83585 -6.03128,2.507599 -1.51137,1.631904 -2.26942,3.980264 -2.26942,7.045129 v 16.179934 h -7.46211 V 43.297412 c 0,-2.786232 -0.61592,-4.875906 -1.84776,-6.268974 -1.23658,-1.432914 -3.00853,-2.149371 -5.31586,-2.149371 -2.54707,0 -4.57723,0.815951 -6.08956,2.447855 -1.47299,1.631951 -2.20925,4.00021 -2.20925,7.104873 v 16.179934 h -7.46306 V 28.729485 h 7.10488 v 4.059908 c 1.19393,-1.432914 2.68683,-2.527499 4.47773,-3.283754 1.79138,-0.756255 3.78128,-1.134382 5.97016,-1.134382 2.38788,0 4.49622,0.457723 6.32976,1.373217 1.87145,0.875649 3.34492,2.189169 4.41568,3.940466 1.31712,-1.671701 3.00853,-2.965323 5.07897,-3.880769 2.0657,-0.955292 4.35408,-1.432914 6.86513,-1.432914 z"
     fill="#ffffff"
     id="path1029"
     style="stroke-width:0.473785" />
</svg>
