<svg xmlns="http://www.w3.org/2000/svg" width="512" height="74.405" fill="none"><path fill="#fff" d="M13.319 1.299 29.27 9.752c.334.177.287.694-.069.817-2.396.83-4.207 1.94-5.73 3.39-1.88 1.789-2.555 4.497-2.555 7.144v40.51c0 2.609-1.427 4.992-3.683 6.147L4.99 74.03C2.69 75.207 0 73.47 0 70.812V8.747C0 7.146.205 5.501 1.076 4.18 2.167 2.52 3.695 1.36 5.812.51c2.447-.983 5.17-.45 7.507.789Z" style="stroke-width:.473785"/><path fill="#fff" d="m38.627 13.322 17.418 9.003c.338.174.293.697-.064.824-2.462.878-4.311 2.135-5.864 3.72-1.762 1.797-2.45 4.388-2.496 6.951l-.281 15.247c-.048 2.56-1.467 4.88-3.68 6.015l-11.893 6.093c-2.299 1.178-4.99-.557-4.99-3.217V21.634c0-1.601.211-3.245 1.104-4.552 1.643-2.406 4.33-4.027 7.802-4.398 1.017-.109 2.028.165 2.944.638zM56.349 29.429c1.862-1.668 4.022-2.672 7.503-2.81 2.421.215 3.677.43 5.57 1.5 1.387.785 3.148 2.142 4.116 4.284 1.695 3.428.828 7.137-1.937 10.282-2.198 2.5-9.216 5.22-13.88 6.824-2.18.75-4.368-.956-4.368-3.338v-8.809c0-2.96.836-5.998 2.996-7.933zM110.082 61.209c-4.219 0-8.04-.916-11.463-2.747-3.383-1.87-6.05-4.438-8-7.702-1.91-3.264-2.866-6.945-2.866-11.045s.975-7.781 2.925-11.045c1.95-3.264 4.618-5.811 8-7.642 3.424-1.871 7.245-2.807 11.464-2.807 3.423 0 6.548.598 9.373 1.792 2.827 1.194 5.215 2.925 7.165 5.194l-5.015 4.717c-3.025-3.264-6.747-4.896-11.165-4.896-2.866 0-5.433.637-7.702 1.91-2.268 1.234-4.04 2.966-5.314 5.195-1.273 2.229-1.91 4.756-1.91 7.582 0 2.826.637 5.354 1.91 7.582 1.274 2.23 3.046 3.98 5.314 5.255 2.269 1.233 4.836 1.85 7.702 1.85 4.418 0 8.14-1.651 11.165-4.955l5.015 4.776c-1.95 2.27-4.358 4-7.224 5.195-2.826 1.194-5.95 1.79-9.374 1.79zm36.482-.18c-3.224 0-6.13-.696-8.717-2.089-2.587-1.393-4.617-3.323-6.09-5.791-1.433-2.508-2.15-5.334-2.15-8.478 0-3.145.717-5.951 2.15-8.419 1.473-2.468 3.503-4.398 6.09-5.791 2.587-1.393 5.493-2.09 8.717-2.09 3.264 0 6.189.697 8.776 2.09 2.588 1.393 4.597 3.323 6.03 5.791 1.473 2.468 2.21 5.274 2.21 8.419 0 3.144-.737 5.97-2.21 8.478-1.433 2.468-3.442 4.398-6.03 5.791-2.587 1.393-5.512 2.09-8.776 2.09zm0-6.388c2.746 0 5.015-.915 6.806-2.746 1.791-1.831 2.687-4.24 2.687-7.224 0-2.986-.896-5.394-2.687-7.225-1.791-1.83-4.06-2.746-6.806-2.746-2.747 0-5.016.915-6.807 2.746-1.751 1.831-2.627 4.24-2.627 7.225 0 2.985.876 5.393 2.627 7.224 1.791 1.83 4.06 2.746 6.807 2.746zm64.393-26.27c4.02 0 7.204 1.174 9.553 3.523 2.348 2.308 3.522 5.791 3.522 10.448v18.27h-7.463V43.297c0-2.786-.617-4.875-1.85-6.269-1.235-1.432-3.006-2.149-5.314-2.149-2.508 0-4.518.836-6.03 2.508-1.513 1.632-2.27 3.98-2.27 7.045v16.18h-7.462V43.297c0-2.786-.617-4.875-1.851-6.269-1.234-1.432-3.005-2.149-5.314-2.149-2.547 0-4.577.816-6.09 2.448-1.473 1.632-2.209 4-2.209 7.105v16.18h-7.463V28.729h7.105v4.06c1.194-1.433 2.687-2.527 4.478-3.283 1.79-.757 3.78-1.135 5.97-1.135 2.389 0 4.498.458 6.329 1.373 1.87.876 3.343 2.19 4.418 3.94 1.313-1.67 3.005-2.964 5.075-3.88 2.07-.955 4.359-1.433 6.866-1.433zm34.613-6.448c-3.145 0-4.717 1.712-4.717 5.135v1.91h8.776v5.97h-8.597v25.674h-7.463V26.938c0-3.383.995-6.07 2.985-8.06 1.99-1.99 4.816-2.985 8.478-2.985 2.826 0 5.056.577 6.687 1.731l-2.09 5.613c-1.193-.876-2.547-1.314-4.06-1.314zm39.915 6.806v27.047c0 11.224-5.513 16.836-16.538 16.836-2.906 0-5.692-.398-8.36-1.194-2.626-.756-4.795-1.87-6.507-3.343l3.344-5.612c1.353 1.154 3.004 2.07 4.955 2.746 1.95.676 4 1.015 6.15 1.015 3.263 0 5.652-.796 7.164-2.388 1.552-1.553 2.329-3.96 2.329-7.224v-1.493c-1.194 1.313-2.648 2.328-4.359 3.045-1.712.677-3.562 1.015-5.553 1.015-4.258 0-7.622-1.175-10.09-3.523-2.427-2.348-3.641-5.87-3.641-10.567v-16.36h7.463v15.404c0 2.826.637 4.956 1.91 6.389 1.314 1.393 3.164 2.09 5.553 2.09 2.666 0 4.776-.816 6.329-2.449 1.592-1.631 2.388-4 2.388-7.104v-14.33Zm22.744 32.48c-3.224 0-6.349-.458-9.374-1.373-2.985-.916-5.353-2.13-7.105-3.642l2.687-6.03c1.711 1.353 3.801 2.467 6.27 3.343 2.507.836 5.014 1.253 7.522 1.253 3.104 0 5.413-.497 6.925-1.492 1.553-.995 2.329-2.309 2.329-3.94 0-1.194-.438-2.17-1.313-2.926-.836-.796-1.911-1.413-3.224-1.85-1.314-.439-3.105-.936-5.374-1.493-3.184-.757-5.771-1.513-7.762-2.27-1.95-.755-3.642-1.93-5.074-3.522-1.394-1.632-2.09-3.82-2.09-6.567 0-2.309.617-4.399 1.85-6.27 1.274-1.91 3.165-3.422 5.673-4.537 2.547-1.114 5.652-1.672 9.314-1.672 2.547 0 5.054.319 7.522.956s4.598 1.552 6.389 2.746l-2.448 6.03a24.147 24.147 0 0 0-5.731-2.448c-1.99-.557-3.922-.835-5.792-.835-3.065 0-5.354.517-6.866 1.552-1.473 1.035-2.21 2.408-2.21 4.12 0 1.194.419 2.169 1.255 2.925.875.756 1.97 1.353 3.284 1.791 1.313.438 3.104.936 5.373 1.493 3.104.716 5.652 1.472 7.642 2.269a12.58 12.58 0 0 1 5.075 3.522c1.433 1.592 2.15 3.742 2.15 6.448 0 2.309-.638 4.398-1.911 6.27-1.234 1.87-3.125 3.362-5.672 4.477-2.548 1.115-5.652 1.672-9.314 1.672zm41.787-2.328c-.875.716-1.95 1.253-3.224 1.611a14.068 14.068 0 0 1-3.94.538c-3.503 0-6.21-.916-8.12-2.747-1.91-1.83-2.866-4.498-2.866-8V21.684h7.463v7.284h8.538v5.97h-8.538v15.166c0 1.552.378 2.746 1.135 3.582.796.796 1.89 1.194 3.284 1.194 1.671 0 3.064-.438 4.179-1.313zm13.274-25.495c2.15-3.343 5.93-5.015 11.344-5.015v7.105a9.473 9.473 0 0 0-1.731-.179c-2.906 0-5.175.856-6.807 2.567-1.632 1.672-2.448 4.1-2.448 7.284v15.464h-7.463V28.729h7.105zm32.548 21.315c3.463 0 6.35-1.154 8.657-3.463l3.94 4.598c-1.392 1.71-3.183 3.005-5.372 3.88-2.19.876-4.657 1.314-7.404 1.314-3.502 0-6.587-.697-9.254-2.09-2.667-1.393-4.736-3.323-6.209-5.791-1.433-2.508-2.15-5.334-2.15-8.478 0-3.105.697-5.891 2.09-8.359 1.433-2.508 3.383-4.458 5.851-5.851 2.508-1.393 5.334-2.09 8.478-2.09 2.985 0 5.692.657 8.12 1.97 2.468 1.274 4.418 3.125 5.85 5.553 1.434 2.388 2.15 5.194 2.15 8.418l-24.419 4.777c.756 1.83 1.97 3.224 3.642 4.18 1.672.954 3.682 1.432 6.03 1.432zm-1.373-20.36c-2.746 0-4.975.896-6.687 2.687-1.672 1.792-2.507 4.2-2.507 7.225v.06l18.03-3.463c-.517-1.95-1.572-3.523-3.164-4.717-1.552-1.194-3.443-1.791-5.672-1.791zm54.456-5.612v31.883h-7.105v-4.12a11.502 11.502 0 0 1-4.597 3.403c-1.79.757-3.781 1.135-5.97 1.135-3.105 0-5.89-.677-8.359-2.03-2.428-1.354-4.338-3.264-5.731-5.732-1.354-2.468-2.03-5.333-2.03-8.597 0-3.264.676-6.11 2.03-8.538 1.393-2.468 3.303-4.378 5.731-5.732 2.468-1.353 5.254-2.03 8.359-2.03 2.07 0 3.96.358 5.672 1.075a12.472 12.472 0 0 1 4.537 3.164v-3.88zm-16.836 25.912c2.746 0 5.015-.915 6.806-2.746 1.791-1.831 2.687-4.24 2.687-7.224 0-2.986-.896-5.394-2.687-7.225-1.791-1.83-4.06-2.746-6.806-2.746-2.747 0-5.016.915-6.807 2.746-1.751 1.831-2.627 4.24-2.627 7.225 0 2.985.876 5.393 2.627 7.224 1.791 1.83 4.06 2.746 6.807 2.746zm66.843-26.27c4.018 0 7.202 1.174 9.552 3.523 2.35 2.308 3.52 5.791 3.52 10.448v18.27h-7.462V43.297c0-2.786-.616-4.875-1.848-6.269-1.236-1.432-3.008-2.149-5.316-2.149-2.506 0-4.515.836-6.031 2.508-1.511 1.632-2.27 3.98-2.27 7.045v16.18h-7.462V43.297c0-2.786-.615-4.875-1.847-6.269-1.237-1.432-3.009-2.149-5.316-2.149-2.547 0-4.577.816-6.09 2.448-1.473 1.632-2.209 4-2.209 7.105v16.18h-7.463V28.729h7.105v4.06c1.194-1.433 2.687-2.527 4.478-3.283 1.791-.757 3.78-1.135 5.97-1.135 2.388 0 4.496.458 6.33 1.373 1.871.876 3.344 2.19 4.415 3.94 1.317-1.67 3.009-2.964 5.08-3.88 2.065-.955 4.353-1.433 6.864-1.433z" style="stroke-width:.473785"/></svg>