<svg width="512" height="512" viewBox="0 0 512 512" fill="none" xmlns="http://www.w3.org/2000/svg">
<path d="M0 40C0 17.9086 17.9086 0 40 0H472C494.091 0 512 17.9086 512 40V472C512 494.091 494.091 512 472 512H40C17.9086 512 0 494.091 0 472V40Z" fill="#FFFEFE"/>
<path d="M0.5 40C0.5 18.1848 18.1848 0.5 40 0.5H472C493.815 0.5 511.5 18.1848 511.5 40V472C511.5 493.815 493.815 511.5 472 511.5H40C18.1848 511.5 0.5 493.815 0.5 472V40Z" stroke="#E3E5E4" stroke-opacity="0.2"/>
<path d="M167.406 122.977L226.577 155.375C227.816 156.053 227.639 158.034 226.32 158.506C217.433 161.686 210.715 165.944 205.067 171.496C198.09 178.356 195.588 188.733 195.588 198.881V354.138C195.588 364.138 190.292 373.27 181.927 377.696L153.123 390.236C147.942 392.492 142.452 394.288 136.838 393.962C131.07 393.627 126.998 391.831 123.655 387.864C118.716 382.003 118 373.694 118 365.923V151.524C118 145.387 118.76 139.082 121.99 134.015C126.04 127.661 131.705 123.216 139.558 119.955C148.635 116.186 158.738 118.231 167.406 122.977Z" fill="black"/>
<path d="M261.283 169.058L325.897 203.562C327.15 204.231 326.983 206.233 325.66 206.72C316.526 210.085 309.664 214.904 303.906 220.976C297.37 227.866 294.822 237.795 294.646 247.62L293.603 306.054C293.428 315.869 288.163 324.76 279.952 329.107L245.356 347.421C239.1 350.733 231.674 353.808 225.407 350.517C224.162 349.863 223.028 349.011 221.981 347.914C217.852 343.59 217.328 337.002 217.328 330.927V200.915C217.328 194.778 218.112 188.478 221.421 183.47C227.516 174.248 237.488 168.035 250.362 166.613C254.135 166.197 257.889 167.246 261.283 169.058Z" fill="black"/>
<path d="M327.023 230.789C333.928 224.395 341.943 220.551 354.855 220.023C363.838 220.844 368.497 221.665 375.515 225.77C380.66 228.779 387.192 233.979 390.785 242.189C397.072 255.325 393.857 269.542 383.599 281.596C376.741 289.655 357.233 298.311 340.911 304.516C335.107 306.723 328.417 308.92 323.116 305.627C322.267 305.099 321.489 304.467 320.77 303.723C316.163 298.958 315.911 291.51 315.911 284.775V261.195C315.911 249.846 319.01 238.207 327.023 230.789Z" fill="black"/>
</svg>
