<svg width="512" height="512" viewBox="0 0 512 512" fill="none" xmlns="http://www.w3.org/2000/svg">
<g clip-path="url(#clip0_204_25)">
<path d="M91.652 9.23293L201.417 69.3332C203.716 70.5919 203.389 74.2657 200.941 75.1418C184.456 81.0405 171.993 88.9394 161.515 99.2399C148.572 111.964 143.931 131.214 143.931 150.04V438.052C143.931 456.603 134.106 473.545 118.589 481.755L65.1562 505.017C55.5443 509.202 45.3597 512.533 34.9456 511.929C24.2462 511.308 16.6921 507.977 10.4902 500.617C1.32733 489.744 0 474.332 0 459.915V62.1896C0 50.805 1.41021 39.1084 7.40168 29.7086C14.9144 17.9221 25.4231 9.67692 39.9924 3.62717C56.8294 -3.36419 75.5721 0.428615 91.652 9.23293Z" fill="white"/>
<path d="M265.8 94.7171L385.664 158.724C387.988 159.965 387.679 163.678 385.224 164.583C368.281 170.825 355.551 179.764 344.869 191.027C332.745 203.81 328.017 222.228 327.692 240.454L325.756 348.854C325.431 367.061 315.664 383.555 300.432 391.618L236.255 425.592C224.649 431.737 210.873 437.441 199.247 431.335C196.938 430.122 194.835 428.542 192.892 426.508C185.232 418.486 184.26 406.264 184.26 394.995V153.814C184.26 142.43 185.715 130.741 191.854 121.451C203.16 104.344 221.658 92.8183 245.542 90.1809C252.54 89.4082 259.503 91.3545 265.8 94.7171Z" fill="white"/>
<path d="M387.752 209.231C400.562 197.371 415.43 190.239 439.384 189.259C456.047 190.782 464.689 192.305 477.708 199.92C487.254 205.503 499.37 215.15 506.035 230.38C517.699 254.747 511.734 281.121 492.705 303.482C479.983 318.432 443.794 334.489 413.516 346.001C402.75 350.094 390.338 354.17 380.506 348.062C378.93 347.083 377.487 345.91 376.152 344.53C367.606 335.691 367.14 321.874 367.14 309.38V265.637C367.14 244.583 372.888 222.993 387.752 209.231Z" fill="white"/>
</g>
<defs>
<clipPath id="clip0_204_25">
<rect width="512" height="512" fill="white"/>
</clipPath>
</defs>
</svg>
