<svg width="1223" height="339" viewBox="0 0 1223 339" fill="none" xmlns="http://www.w3.org/2000/svg">
<rect width="1223" height="339" rx="49" fill="black"/>
<path d="M100.112 94.686L133.78 112.528C134.485 112.902 134.385 113.992 133.634 114.252C128.577 116.003 124.755 118.348 121.541 121.406C117.571 125.184 116.147 130.898 116.147 136.487V221.989C116.147 227.496 113.134 232.526 108.374 234.963L82.5299 248.197C77.6788 250.681 72 247.018 72 241.406V110.407C72 107.027 72.4325 103.555 74.2703 100.765C76.5746 97.2655 79.7979 94.8178 84.2667 93.0218C89.431 90.9463 95.1799 92.0723 100.112 94.686Z" fill="white"/>
<path d="M153.528 120.064L190.293 139.065C191.006 139.434 190.911 140.536 190.158 140.804C184.961 142.658 181.057 145.311 177.78 148.655C174.061 152.45 172.611 157.918 172.511 163.328L171.918 195.509C171.818 200.914 168.822 205.81 164.15 208.204L139.049 221.065C134.198 223.551 128.517 219.889 128.517 214.275V137.608C128.517 134.228 128.964 130.758 130.847 128C134.314 122.921 139.988 119.5 147.314 118.717C149.46 118.488 151.596 119.065 153.528 120.064Z" fill="white"/>
<path d="M190.933 154.059C194.863 150.538 199.423 148.421 206.77 148.13C211.881 148.582 214.532 149.035 218.525 151.295C221.453 152.953 225.17 155.816 227.214 160.338C230.792 167.572 228.962 175.401 223.125 182.039C218.486 187.316 203.673 193.057 193.829 196.442C189.23 198.024 184.611 194.424 184.611 189.397V170.804C184.611 164.554 186.374 158.145 190.933 154.059Z" fill="white"/>
<path d="M304.347 221.136C295.442 221.136 287.377 219.204 280.152 215.339C273.011 211.391 267.382 205.972 263.265 199.083C259.233 192.194 257.217 184.423 257.217 175.77C257.217 167.117 259.275 159.346 263.391 152.457C267.508 145.568 273.137 140.192 280.278 136.327C287.503 132.379 295.568 130.404 304.473 130.404C311.698 130.404 318.293 131.665 324.257 134.185C330.222 136.705 335.263 140.36 339.379 145.148L328.794 155.104C322.409 148.215 314.554 144.77 305.229 144.77C299.18 144.77 293.761 146.114 288.973 148.803C284.184 151.407 280.446 155.062 277.757 159.766C275.069 164.471 273.725 169.806 273.725 175.77C273.725 181.735 275.069 187.07 277.757 191.774C280.446 196.479 284.184 200.175 288.973 202.864C293.761 205.468 299.18 206.77 305.229 206.77C314.554 206.77 322.409 203.284 328.794 196.311L339.379 206.392C335.263 211.181 330.18 214.835 324.131 217.356C318.167 219.876 311.572 221.136 304.347 221.136ZM381.347 220.758C374.542 220.758 368.409 219.288 362.948 216.348C357.488 213.407 353.203 209.333 350.095 204.124C347.07 198.831 345.558 192.867 345.558 186.23C345.558 179.593 347.07 173.67 350.095 168.461C353.203 163.253 357.488 159.178 362.948 156.238C368.409 153.297 374.542 151.827 381.347 151.827C388.236 151.827 394.41 153.297 399.871 156.238C405.332 159.178 409.574 163.253 412.599 168.461C415.707 173.67 417.261 179.593 417.261 186.23C417.261 192.867 415.707 198.831 412.599 204.124C409.574 209.333 405.332 213.407 399.871 216.348C394.41 219.288 388.236 220.758 381.347 220.758ZM381.347 207.274C387.143 207.274 391.932 205.342 395.713 201.478C399.493 197.613 401.383 192.53 401.383 186.23C401.383 179.929 399.493 174.846 395.713 170.982C391.932 167.117 387.143 165.185 381.347 165.185C375.55 165.185 370.761 167.117 366.981 170.982C363.284 174.846 361.436 179.929 361.436 186.23C361.436 192.53 363.284 197.613 366.981 201.478C370.761 205.342 375.55 207.274 381.347 207.274ZM517.259 151.827C525.744 151.827 532.465 154.305 537.422 159.262C542.379 164.135 544.857 171.486 544.857 181.315V219.876H529.105V183.331C529.105 177.451 527.803 173.04 525.198 170.1C522.594 167.075 518.856 165.563 513.983 165.563C508.69 165.563 504.448 167.327 501.255 170.856C498.063 174.3 496.467 179.257 496.467 185.726V219.876H480.715V183.331C480.715 177.451 479.412 173.04 476.808 170.1C474.204 167.075 470.465 165.563 465.593 165.563C460.216 165.563 455.931 167.285 452.739 170.73C449.631 174.174 448.076 179.173 448.076 185.726V219.876H432.324V152.583H447.32V161.152C449.841 158.128 452.991 155.818 456.771 154.221C460.552 152.625 464.752 151.827 469.373 151.827C474.414 151.827 478.866 152.793 482.731 154.726C486.679 156.574 489.788 159.346 492.056 163.043C494.828 159.514 498.399 156.784 502.767 154.852C507.136 152.835 511.967 151.827 517.259 151.827ZM590.315 138.217C583.678 138.217 580.36 141.83 580.36 149.055V153.087H598.884V165.689H580.738V219.876H564.986V148.803C564.986 141.662 567.086 135.991 571.287 131.791C575.487 127.59 581.452 125.49 589.181 125.49C595.146 125.49 599.851 126.708 603.295 129.144L598.884 140.99C596.364 139.142 593.508 138.217 590.315 138.217ZM674.562 152.583V209.669C674.562 233.36 662.927 245.205 639.656 245.205C633.523 245.205 627.642 244.365 622.013 242.685C616.469 241.089 611.89 238.736 608.278 235.628L615.335 223.783C618.191 226.219 621.677 228.151 625.794 229.579C629.91 231.007 634.237 231.722 638.774 231.722C645.662 231.722 650.703 230.041 653.896 226.681C657.172 223.404 658.81 218.322 658.81 211.433V208.283C656.29 211.055 653.223 213.197 649.611 214.709C645.999 216.138 642.092 216.852 637.891 216.852C628.902 216.852 621.803 214.373 616.595 209.417C611.47 204.46 608.908 197.025 608.908 187.112V152.583H624.66V185.096C624.66 191.06 626.004 195.555 628.692 198.579C631.465 201.52 635.371 202.99 640.412 202.99C646.041 202.99 650.493 201.268 653.77 197.823C657.13 194.379 658.81 189.38 658.81 182.827V152.583H674.562ZM722.568 221.136C715.763 221.136 709.168 220.17 702.783 218.238C696.482 216.306 691.484 213.743 687.787 210.551L693.458 197.823C697.07 200.68 701.481 203.032 706.69 204.88C711.982 206.644 717.275 207.526 722.568 207.526C729.12 207.526 733.993 206.476 737.186 204.376C740.462 202.276 742.1 199.503 742.1 196.059C742.1 193.539 741.176 191.48 739.328 189.884C737.564 188.204 735.295 186.902 732.523 185.978C729.751 185.054 725.97 184.003 721.181 182.827C714.461 181.231 709 179.635 704.799 178.039C700.683 176.442 697.112 173.964 694.088 170.604C691.148 167.159 689.677 162.539 689.677 156.742C689.677 151.869 690.98 147.459 693.584 143.51C696.272 139.478 700.263 136.285 705.555 133.933C710.932 131.581 717.485 130.404 725.214 130.404C730.591 130.404 735.883 131.076 741.092 132.421C746.301 133.765 750.795 135.697 754.576 138.217L749.409 150.945C745.545 148.677 741.512 146.955 737.312 145.778C733.111 144.602 729.036 144.014 725.088 144.014C718.619 144.014 713.788 145.106 710.596 147.291C707.488 149.475 705.933 152.373 705.933 155.986C705.933 158.506 706.816 160.564 708.58 162.161C710.428 163.757 712.738 165.017 715.511 165.941C718.283 166.865 722.064 167.915 726.852 169.091C733.405 170.604 738.782 172.2 742.982 173.88C747.183 175.476 750.753 177.955 753.694 181.315C756.718 184.675 758.23 189.212 758.23 194.925C758.23 199.797 756.886 204.208 754.198 208.157C751.593 212.105 747.603 215.255 742.226 217.608C736.849 219.96 730.297 221.136 722.568 221.136ZM810.767 216.222C808.919 217.734 806.651 218.868 803.962 219.624C801.358 220.38 798.586 220.758 795.645 220.758C788.252 220.758 782.54 218.826 778.507 214.961C774.475 211.097 772.458 205.468 772.458 198.075V137.713H788.21V153.087H806.231V165.689H788.21V197.697C788.21 200.974 789.008 203.494 790.605 205.258C792.285 206.938 794.595 207.778 797.536 207.778C801.064 207.778 804.004 206.854 806.357 205.006L810.767 216.222ZM838.783 162.413C843.32 155.356 851.301 151.827 862.726 151.827V166.823C861.382 166.571 860.164 166.445 859.072 166.445C852.939 166.445 848.15 168.251 844.706 171.864C841.262 175.392 839.539 180.517 839.539 187.238V219.876H823.787V152.583H838.783V162.413ZM907.482 207.4C914.791 207.4 920.882 204.964 925.754 200.091L934.071 209.795C931.131 213.407 927.35 216.138 922.73 217.986C918.109 219.834 912.901 220.758 907.104 220.758C899.711 220.758 893.2 219.288 887.571 216.348C881.943 213.407 877.574 209.333 874.466 204.124C871.441 198.831 869.929 192.867 869.929 186.23C869.929 179.677 871.399 173.796 874.34 168.587C877.364 163.295 881.481 159.178 886.689 156.238C891.982 153.297 897.947 151.827 904.584 151.827C910.884 151.827 916.597 153.213 921.722 155.986C926.93 158.674 931.047 162.581 934.071 167.705C937.096 172.746 938.608 178.669 938.608 185.474L887.067 195.555C888.663 199.419 891.226 202.36 894.754 204.376C898.283 206.392 902.525 207.4 907.482 207.4ZM904.584 164.429C898.787 164.429 894.082 166.319 890.47 170.1C886.941 173.88 885.177 178.963 885.177 185.348V185.474L923.234 178.165C922.142 174.048 919.916 170.73 916.555 168.209C913.279 165.689 909.288 164.429 904.584 164.429ZM1019.52 152.583V219.876H1004.53V211.181C1001.92 214.373 998.688 216.768 994.823 218.364C991.043 219.96 986.842 220.758 982.221 220.758C975.669 220.758 969.788 219.33 964.579 216.474C959.454 213.617 955.422 209.585 952.482 204.376C949.625 199.167 948.197 193.119 948.197 186.23C948.197 179.341 949.625 173.334 952.482 168.209C955.422 163.001 959.454 158.968 964.579 156.112C969.788 153.255 975.669 151.827 982.221 151.827C986.59 151.827 990.581 152.583 994.193 154.095C997.889 155.608 1001.08 157.834 1003.77 160.774V152.583H1019.52ZM983.986 207.274C989.782 207.274 994.571 205.342 998.352 201.478C1002.13 197.613 1004.02 192.53 1004.02 186.23C1004.02 179.929 1002.13 174.846 998.352 170.982C994.571 167.117 989.782 165.185 983.986 165.185C978.189 165.185 973.4 167.117 969.62 170.982C965.923 174.846 964.075 179.929 964.075 186.23C964.075 192.53 965.923 197.613 969.62 201.478C973.4 205.342 978.189 207.274 983.986 207.274ZM1125.07 151.827C1133.55 151.827 1140.27 154.305 1145.23 159.262C1150.19 164.135 1152.66 171.486 1152.66 181.315V219.876H1136.91V183.331C1136.91 177.451 1135.61 173.04 1133.01 170.1C1130.4 167.075 1126.66 165.563 1121.79 165.563C1116.5 165.563 1112.26 167.327 1109.06 170.856C1105.87 174.3 1104.27 179.257 1104.27 185.726V219.876H1088.52V183.331C1088.52 177.451 1087.22 173.04 1084.62 170.1C1082.01 167.075 1078.27 165.563 1073.4 165.563C1068.02 165.563 1063.74 167.285 1060.55 170.73C1057.44 174.174 1055.88 179.173 1055.88 185.726V219.876H1040.13V152.583H1055.13V161.152C1057.65 158.128 1060.8 155.818 1064.58 154.221C1068.36 152.625 1072.56 151.827 1077.18 151.827C1082.22 151.827 1086.67 152.793 1090.54 154.726C1094.49 156.574 1097.6 159.346 1099.86 163.043C1102.64 159.514 1106.21 156.784 1110.58 154.852C1114.94 152.835 1119.77 151.827 1125.07 151.827Z" fill="white"/>
</svg>
