<svg width="1223" height="339" viewBox="0 0 1223 339" fill="none" xmlns="http://www.w3.org/2000/svg">
<rect width="1223" height="339" rx="49" fill="white"/>
<path d="M100.112 95.686L133.78 113.528C134.485 113.902 134.385 114.992 133.634 115.252C128.577 117.003 124.755 119.348 121.541 122.406C117.571 126.184 116.147 131.898 116.147 137.487V222.989C116.147 228.496 113.134 233.526 108.374 235.963L82.5299 249.197C77.6788 251.681 72 248.018 72 242.406V111.407C72 108.027 72.4325 104.555 74.2703 101.765C76.5746 98.2655 79.7979 95.8178 84.2667 94.0218C89.431 91.9463 95.1799 93.0722 100.112 95.686Z" fill="black"/>
<path d="M153.528 121.064L190.293 140.065C191.006 140.434 190.911 141.536 190.158 141.804C184.961 143.658 181.057 146.311 177.78 149.655C174.061 153.45 172.611 158.918 172.511 164.328L171.918 196.509C171.818 201.914 168.822 206.81 164.15 209.204L139.049 222.065C134.198 224.551 128.517 220.889 128.517 215.275V138.608C128.517 135.228 128.964 131.758 130.847 129C134.314 123.921 139.988 120.5 147.314 119.717C149.46 119.488 151.596 120.065 153.528 121.064Z" fill="black"/>
<path d="M190.933 155.059C194.863 151.538 199.423 149.421 206.77 149.13C211.881 149.582 214.532 150.035 218.525 152.295C221.453 153.953 225.17 156.816 227.214 161.338C230.792 168.571 228.962 176.401 223.125 183.039C218.486 188.316 203.673 194.057 193.829 197.442C189.23 199.024 184.611 195.424 184.611 190.397V171.804C184.611 165.554 186.374 159.145 190.933 155.059Z" fill="black"/>
<path d="M304.347 222.136C295.442 222.136 287.377 220.204 280.152 216.339C273.011 212.391 267.382 206.972 263.265 200.083C259.233 193.194 257.217 185.423 257.217 176.77C257.217 168.117 259.275 160.346 263.391 153.457C267.508 146.568 273.137 141.192 280.278 137.327C287.503 133.379 295.568 131.404 304.473 131.404C311.698 131.404 318.293 132.665 324.257 135.185C330.222 137.705 335.263 141.36 339.379 146.148L328.794 156.104C322.409 149.215 314.554 145.77 305.229 145.77C299.18 145.77 293.761 147.114 288.973 149.803C284.184 152.407 280.446 156.062 277.757 160.766C275.069 165.471 273.725 170.806 273.725 176.77C273.725 182.735 275.069 188.07 277.757 192.774C280.446 197.479 284.184 201.175 288.973 203.864C293.761 206.468 299.18 207.77 305.229 207.77C314.554 207.77 322.409 204.284 328.794 197.311L339.379 207.392C335.263 212.181 330.18 215.835 324.131 218.356C318.167 220.876 311.572 222.136 304.347 222.136ZM381.347 221.758C374.542 221.758 368.409 220.288 362.948 217.348C357.488 214.407 353.203 210.333 350.095 205.124C347.07 199.831 345.558 193.867 345.558 187.23C345.558 180.593 347.07 174.67 350.095 169.461C353.203 164.253 357.488 160.178 362.948 157.238C368.409 154.297 374.542 152.827 381.347 152.827C388.236 152.827 394.41 154.297 399.871 157.238C405.332 160.178 409.574 164.253 412.599 169.461C415.707 174.67 417.261 180.593 417.261 187.23C417.261 193.867 415.707 199.831 412.599 205.124C409.574 210.333 405.332 214.407 399.871 217.348C394.41 220.288 388.236 221.758 381.347 221.758ZM381.347 208.274C387.143 208.274 391.932 206.342 395.713 202.478C399.493 198.613 401.383 193.53 401.383 187.23C401.383 180.929 399.493 175.846 395.713 171.982C391.932 168.117 387.143 166.185 381.347 166.185C375.55 166.185 370.761 168.117 366.981 171.982C363.284 175.846 361.436 180.929 361.436 187.23C361.436 193.53 363.284 198.613 366.981 202.478C370.761 206.342 375.55 208.274 381.347 208.274ZM517.259 152.827C525.744 152.827 532.465 155.305 537.422 160.262C542.379 165.135 544.857 172.486 544.857 182.315V220.876H529.105V184.331C529.105 178.451 527.803 174.04 525.198 171.1C522.594 168.075 518.856 166.563 513.983 166.563C508.69 166.563 504.448 168.327 501.255 171.856C498.063 175.3 496.467 180.257 496.467 186.726V220.876H480.715V184.331C480.715 178.451 479.412 174.04 476.808 171.1C474.204 168.075 470.465 166.563 465.593 166.563C460.216 166.563 455.931 168.285 452.739 171.73C449.631 175.174 448.076 180.173 448.076 186.726V220.876H432.324V153.583H447.32V162.152C449.841 159.128 452.991 156.818 456.771 155.221C460.552 153.625 464.752 152.827 469.373 152.827C474.414 152.827 478.866 153.793 482.731 155.726C486.679 157.574 489.788 160.346 492.056 164.043C494.828 160.514 498.399 157.784 502.767 155.852C507.136 153.835 511.967 152.827 517.259 152.827ZM590.315 139.217C583.678 139.217 580.36 142.83 580.36 150.055V154.087H598.884V166.689H580.738V220.876H564.986V149.803C564.986 142.662 567.086 136.991 571.287 132.791C575.487 128.59 581.452 126.49 589.181 126.49C595.146 126.49 599.851 127.708 603.295 130.144L598.884 141.99C596.364 140.142 593.508 139.217 590.315 139.217ZM674.562 153.583V210.669C674.562 234.36 662.927 246.205 639.656 246.205C633.523 246.205 627.642 245.365 622.013 243.685C616.469 242.089 611.89 239.736 608.278 236.628L615.335 224.783C618.191 227.219 621.677 229.151 625.794 230.579C629.91 232.007 634.237 232.722 638.774 232.722C645.662 232.722 650.703 231.041 653.896 227.681C657.172 224.404 658.81 219.322 658.81 212.433V209.283C656.29 212.055 653.223 214.197 649.611 215.709C645.999 217.138 642.092 217.852 637.891 217.852C628.902 217.852 621.803 215.373 616.595 210.417C611.47 205.46 608.908 198.025 608.908 188.112V153.583H624.66V186.095C624.66 192.06 626.004 196.555 628.692 199.579C631.465 202.52 635.371 203.99 640.412 203.99C646.041 203.99 650.493 202.268 653.77 198.823C657.13 195.379 658.81 190.38 658.81 183.827V153.583H674.562ZM722.568 222.136C715.763 222.136 709.168 221.17 702.783 219.238C696.482 217.306 691.484 214.743 687.787 211.551L693.458 198.823C697.07 201.68 701.481 204.032 706.69 205.88C711.982 207.644 717.275 208.526 722.568 208.526C729.12 208.526 733.993 207.476 737.186 205.376C740.462 203.276 742.1 200.503 742.1 197.059C742.1 194.539 741.176 192.48 739.328 190.884C737.564 189.204 735.295 187.902 732.523 186.978C729.751 186.053 725.97 185.003 721.181 183.827C714.461 182.231 709 180.635 704.799 179.039C700.683 177.442 697.112 174.964 694.088 171.604C691.148 168.159 689.677 163.539 689.677 157.742C689.677 152.869 690.98 148.459 693.584 144.51C696.272 140.478 700.263 137.285 705.555 134.933C710.932 132.581 717.485 131.404 725.214 131.404C730.591 131.404 735.883 132.076 741.092 133.421C746.301 134.765 750.795 136.697 754.576 139.217L749.409 151.945C745.545 149.677 741.512 147.955 737.312 146.778C733.111 145.602 729.036 145.014 725.088 145.014C718.619 145.014 713.788 146.106 710.596 148.291C707.488 150.475 705.933 153.373 705.933 156.986C705.933 159.506 706.816 161.564 708.58 163.161C710.428 164.757 712.738 166.017 715.511 166.941C718.283 167.865 722.064 168.915 726.852 170.091C733.405 171.604 738.782 173.2 742.982 174.88C747.183 176.476 750.753 178.955 753.694 182.315C756.718 185.675 758.23 190.212 758.23 195.925C758.23 200.797 756.886 205.208 754.198 209.157C751.593 213.105 747.603 216.255 742.226 218.608C736.849 220.96 730.297 222.136 722.568 222.136ZM810.767 217.222C808.919 218.734 806.651 219.868 803.962 220.624C801.358 221.38 798.586 221.758 795.645 221.758C788.252 221.758 782.54 219.826 778.507 215.961C774.475 212.097 772.458 206.468 772.458 199.075V138.713H788.21V154.087H806.231V166.689H788.21V198.697C788.21 201.974 789.008 204.494 790.605 206.258C792.285 207.938 794.595 208.778 797.536 208.778C801.064 208.778 804.004 207.854 806.357 206.006L810.767 217.222ZM838.783 163.413C843.32 156.356 851.301 152.827 862.726 152.827V167.823C861.382 167.571 860.164 167.445 859.072 167.445C852.939 167.445 848.15 169.251 844.706 172.864C841.262 176.392 839.539 181.517 839.539 188.238V220.876H823.787V153.583H838.783V163.413ZM907.482 208.4C914.791 208.4 920.882 205.964 925.754 201.091L934.071 210.795C931.131 214.407 927.35 217.138 922.73 218.986C918.109 220.834 912.901 221.758 907.104 221.758C899.711 221.758 893.2 220.288 887.571 217.348C881.943 214.407 877.574 210.333 874.466 205.124C871.441 199.831 869.929 193.867 869.929 187.23C869.929 180.677 871.399 174.796 874.34 169.587C877.364 164.295 881.481 160.178 886.689 157.238C891.982 154.297 897.947 152.827 904.584 152.827C910.884 152.827 916.597 154.213 921.722 156.986C926.93 159.674 931.047 163.581 934.071 168.705C937.096 173.746 938.608 179.669 938.608 186.474L887.067 196.555C888.663 200.419 891.226 203.36 894.754 205.376C898.283 207.392 902.525 208.4 907.482 208.4ZM904.584 165.429C898.787 165.429 894.082 167.319 890.47 171.1C886.941 174.88 885.177 179.963 885.177 186.348V186.474L923.234 179.165C922.142 175.048 919.916 171.73 916.555 169.209C913.279 166.689 909.288 165.429 904.584 165.429ZM1019.52 153.583V220.876H1004.53V212.181C1001.92 215.373 998.688 217.768 994.823 219.364C991.043 220.96 986.842 221.758 982.221 221.758C975.669 221.758 969.788 220.33 964.579 217.474C959.454 214.617 955.422 210.585 952.482 205.376C949.625 200.167 948.197 194.119 948.197 187.23C948.197 180.341 949.625 174.334 952.482 169.209C955.422 164.001 959.454 159.968 964.579 157.112C969.788 154.255 975.669 152.827 982.221 152.827C986.59 152.827 990.581 153.583 994.193 155.095C997.889 156.608 1001.08 158.834 1003.77 161.774V153.583H1019.52ZM983.986 208.274C989.782 208.274 994.571 206.342 998.352 202.478C1002.13 198.613 1004.02 193.53 1004.02 187.23C1004.02 180.929 1002.13 175.846 998.352 171.982C994.571 168.117 989.782 166.185 983.986 166.185C978.189 166.185 973.4 168.117 969.62 171.982C965.923 175.846 964.075 180.929 964.075 187.23C964.075 193.53 965.923 198.613 969.62 202.478C973.4 206.342 978.189 208.274 983.986 208.274ZM1125.07 152.827C1133.55 152.827 1140.27 155.305 1145.23 160.262C1150.19 165.135 1152.66 172.486 1152.66 182.315V220.876H1136.91V184.331C1136.91 178.451 1135.61 174.04 1133.01 171.1C1130.4 168.075 1126.66 166.563 1121.79 166.563C1116.5 166.563 1112.26 168.327 1109.06 171.856C1105.87 175.3 1104.27 180.257 1104.27 186.726V220.876H1088.52V184.331C1088.52 178.451 1087.22 174.04 1084.62 171.1C1082.01 168.075 1078.27 166.563 1073.4 166.563C1068.02 166.563 1063.74 168.285 1060.55 171.73C1057.44 175.174 1055.88 180.173 1055.88 186.726V220.876H1040.13V153.583H1055.13V162.152C1057.65 159.128 1060.8 156.818 1064.58 155.221C1068.36 153.625 1072.56 152.827 1077.18 152.827C1082.22 152.827 1086.67 153.793 1090.54 155.726C1094.49 157.574 1097.6 160.346 1099.86 164.043C1102.64 160.514 1106.21 157.784 1110.58 155.852C1114.94 153.835 1119.77 152.827 1125.07 152.827Z" fill="black"/>
</svg>
